<mxfile host="app.diagrams.net" agent="Mozilla/5.0 (Windows NT 10.0; Win64; x64; rv:142.0) Gecko/20100101 Firefox/142.0" version="28.0.9">
  <diagram name="Page-1" id="w3mlr-bReglejORmikGS">
    <mxGraphModel dx="1375" dy="787" grid="1" gridSize="10" guides="1" tooltips="1" connect="1" arrows="1" fold="1" page="1" pageScale="1" pageWidth="850" pageHeight="1100" math="0" shadow="0">
      <root>
        <mxCell id="0" />
        <mxCell id="1" parent="0" />
        <mxCell id="oLJBHlY_lsccmAuZpIpo-1" value="VPC" style="points=[[0,0],[0.25,0],[0.5,0],[0.75,0],[1,0],[1,0.25],[1,0.5],[1,0.75],[1,1],[0.75,1],[0.5,1],[0.25,1],[0,1],[0,0.75],[0,0.5],[0,0.25]];outlineConnect=0;gradientColor=none;html=1;whiteSpace=wrap;fontSize=12;fontStyle=0;container=1;pointerEvents=0;collapsible=0;recursiveResize=0;shape=mxgraph.aws4.group;grIcon=mxgraph.aws4.group_vpc2;strokeColor=#8C4FFF;fillColor=none;verticalAlign=top;align=left;spacingLeft=30;fontColor=#AAB7B8;dashed=0;" parent="1" vertex="1">
          <mxGeometry x="120" y="190" width="700" height="570" as="geometry" />
        </mxCell>
        <mxCell id="oLJBHlY_lsccmAuZpIpo-53" style="edgeStyle=orthogonalEdgeStyle;rounded=0;orthogonalLoop=1;jettySize=auto;html=1;" parent="oLJBHlY_lsccmAuZpIpo-1" source="oLJBHlY_lsccmAuZpIpo-5" target="oLJBHlY_lsccmAuZpIpo-10" edge="1">
          <mxGeometry relative="1" as="geometry" />
        </mxCell>
        <mxCell id="oLJBHlY_lsccmAuZpIpo-57" style="edgeStyle=orthogonalEdgeStyle;rounded=0;orthogonalLoop=1;jettySize=auto;html=1;" parent="oLJBHlY_lsccmAuZpIpo-1" source="oLJBHlY_lsccmAuZpIpo-9" target="oLJBHlY_lsccmAuZpIpo-49" edge="1">
          <mxGeometry relative="1" as="geometry" />
        </mxCell>
        <mxCell id="oLJBHlY_lsccmAuZpIpo-2" value="Availability Zone" style="fillColor=none;strokeColor=#147EBA;dashed=1;verticalAlign=top;fontStyle=0;fontColor=#147EBA;whiteSpace=wrap;html=1;" parent="oLJBHlY_lsccmAuZpIpo-1" vertex="1">
          <mxGeometry x="50" y="170" width="170" height="380" as="geometry" />
        </mxCell>
        <mxCell id="oLJBHlY_lsccmAuZpIpo-10" value="" style="outlineConnect=0;dashed=0;verticalLabelPosition=bottom;verticalAlign=top;align=center;html=1;shape=mxgraph.aws3.route_table;fillColor=#F58536;gradientColor=none;" parent="oLJBHlY_lsccmAuZpIpo-1" vertex="1">
          <mxGeometry x="292.5" y="220" width="50" height="50" as="geometry" />
        </mxCell>
        <mxCell id="oLJBHlY_lsccmAuZpIpo-56" style="edgeStyle=orthogonalEdgeStyle;rounded=0;orthogonalLoop=1;jettySize=auto;html=1;" parent="oLJBHlY_lsccmAuZpIpo-1" source="oLJBHlY_lsccmAuZpIpo-8" target="oLJBHlY_lsccmAuZpIpo-34" edge="1">
          <mxGeometry relative="1" as="geometry" />
        </mxCell>
        <mxCell id="oLJBHlY_lsccmAuZpIpo-3" value="Availability Zone" style="fillColor=none;strokeColor=#147EBA;dashed=1;verticalAlign=top;fontStyle=0;fontColor=#147EBA;whiteSpace=wrap;html=1;" parent="oLJBHlY_lsccmAuZpIpo-1" vertex="1">
          <mxGeometry x="410" y="170" width="170" height="380" as="geometry" />
        </mxCell>
        <mxCell id="oLJBHlY_lsccmAuZpIpo-52" style="edgeStyle=orthogonalEdgeStyle;rounded=0;orthogonalLoop=1;jettySize=auto;html=1;exitX=0;exitY=0.5;exitDx=0;exitDy=0;" parent="oLJBHlY_lsccmAuZpIpo-1" source="oLJBHlY_lsccmAuZpIpo-6" target="oLJBHlY_lsccmAuZpIpo-10" edge="1">
          <mxGeometry relative="1" as="geometry" />
        </mxCell>
        <mxCell id="oLJBHlY_lsccmAuZpIpo-6" value="Public subnet" style="points=[[0,0],[0.25,0],[0.5,0],[0.75,0],[1,0],[1,0.25],[1,0.5],[1,0.75],[1,1],[0.75,1],[0.5,1],[0.25,1],[0,1],[0,0.75],[0,0.5],[0,0.25]];outlineConnect=0;gradientColor=none;html=1;whiteSpace=wrap;fontSize=12;fontStyle=0;container=1;pointerEvents=0;collapsible=0;recursiveResize=0;shape=mxgraph.aws4.group;grIcon=mxgraph.aws4.group_security_group;grStroke=0;strokeColor=#7AA116;fillColor=#F2F6E8;verticalAlign=top;align=left;spacingLeft=30;fontColor=#248814;dashed=0;" parent="oLJBHlY_lsccmAuZpIpo-1" vertex="1">
          <mxGeometry x="430" y="210" width="130" height="130" as="geometry" />
        </mxCell>
        <mxCell id="oLJBHlY_lsccmAuZpIpo-5" value="Public subnet" style="points=[[0,0],[0.25,0],[0.5,0],[0.75,0],[1,0],[1,0.25],[1,0.5],[1,0.75],[1,1],[0.75,1],[0.5,1],[0.25,1],[0,1],[0,0.75],[0,0.5],[0,0.25]];outlineConnect=0;gradientColor=none;html=1;whiteSpace=wrap;fontSize=12;fontStyle=0;container=1;pointerEvents=0;collapsible=0;recursiveResize=0;shape=mxgraph.aws4.group;grIcon=mxgraph.aws4.group_security_group;grStroke=0;strokeColor=#7AA116;fillColor=#F2F6E8;verticalAlign=top;align=left;spacingLeft=30;fontColor=#248814;dashed=0;" parent="oLJBHlY_lsccmAuZpIpo-1" vertex="1">
          <mxGeometry x="70" y="210" width="130" height="130" as="geometry" />
        </mxCell>
        <mxCell id="oLJBHlY_lsccmAuZpIpo-17" value="Bastion Host" style="shape=rect;fillColor=#FA4D56;aspect=fixed;resizable=0;labelPosition=center;verticalLabelPosition=bottom;align=center;verticalAlign=top;strokeColor=none;fontSize=14;" parent="oLJBHlY_lsccmAuZpIpo-5" vertex="1">
          <mxGeometry x="7" y="36" width="52.39999999999999" height="58" as="geometry" />
        </mxCell>
        <mxCell id="oLJBHlY_lsccmAuZpIpo-18" value="" style="fillColor=#ffffff;strokeColor=none;dashed=0;outlineConnect=0;html=1;labelPosition=center;verticalLabelPosition=bottom;verticalAlign=top;part=1;movable=0;resizable=0;rotatable=0;shape=mxgraph.ibm_cloud.bastion-host" parent="oLJBHlY_lsccmAuZpIpo-17" vertex="1">
          <mxGeometry width="24" height="24" relative="1" as="geometry">
            <mxPoint x="12" y="12" as="offset" />
          </mxGeometry>
        </mxCell>
        <mxCell id="oLJBHlY_lsccmAuZpIpo-13" value="" style="image;sketch=0;aspect=fixed;html=1;points=[];align=center;fontSize=12;image=img/lib/mscae/Network_Security_Groups_Classic.svg;" parent="oLJBHlY_lsccmAuZpIpo-17" vertex="1">
          <mxGeometry x="37.599999999999994" y="38" width="14.8" height="20" as="geometry" />
        </mxCell>
        <mxCell id="oLJBHlY_lsccmAuZpIpo-9" value="Private subnet" style="points=[[0,0],[0.25,0],[0.5,0],[0.75,0],[1,0],[1,0.25],[1,0.5],[1,0.75],[1,1],[0.75,1],[0.5,1],[0.25,1],[0,1],[0,0.75],[0,0.5],[0,0.25]];outlineConnect=0;gradientColor=none;html=1;whiteSpace=wrap;fontSize=12;fontStyle=0;container=1;pointerEvents=0;collapsible=0;recursiveResize=0;shape=mxgraph.aws4.group;grIcon=mxgraph.aws4.group_security_group;grStroke=0;strokeColor=#00A4A6;fillColor=#E6F6F7;verticalAlign=top;align=left;spacingLeft=30;fontColor=#147EBA;dashed=0;" parent="oLJBHlY_lsccmAuZpIpo-1" vertex="1">
          <mxGeometry x="70" y="390" width="130" height="130" as="geometry" />
        </mxCell>
        <mxCell id="oLJBHlY_lsccmAuZpIpo-14" value="" style="image;sketch=0;aspect=fixed;html=1;points=[];align=center;fontSize=12;image=img/lib/mscae/Network_Security_Groups_Classic.svg;" parent="oLJBHlY_lsccmAuZpIpo-9" vertex="1">
          <mxGeometry x="69" y="80" width="14.8" height="20" as="geometry" />
        </mxCell>
        <mxCell id="oLJBHlY_lsccmAuZpIpo-44" value="" style="sketch=0;outlineConnect=0;fontColor=#232F3E;gradientColor=none;fillColor=#ED7100;strokeColor=none;dashed=0;verticalLabelPosition=bottom;verticalAlign=top;align=center;html=1;fontSize=12;fontStyle=0;aspect=fixed;pointerEvents=1;shape=mxgraph.aws4.ec2_m1_mac_instance;" parent="oLJBHlY_lsccmAuZpIpo-9" vertex="1">
          <mxGeometry x="90" y="65" width="30" height="30" as="geometry" />
        </mxCell>
        <mxCell id="oLJBHlY_lsccmAuZpIpo-8" value="Private subnet" style="points=[[0,0],[0.25,0],[0.5,0],[0.75,0],[1,0],[1,0.25],[1,0.5],[1,0.75],[1,1],[0.75,1],[0.5,1],[0.25,1],[0,1],[0,0.75],[0,0.5],[0,0.25]];outlineConnect=0;gradientColor=none;html=1;whiteSpace=wrap;fontSize=12;fontStyle=0;container=1;pointerEvents=0;collapsible=0;recursiveResize=0;shape=mxgraph.aws4.group;grIcon=mxgraph.aws4.group_security_group;grStroke=0;strokeColor=#00A4A6;fillColor=#E6F6F7;verticalAlign=top;align=left;spacingLeft=30;fontColor=#147EBA;dashed=0;" parent="oLJBHlY_lsccmAuZpIpo-1" vertex="1">
          <mxGeometry x="430" y="390" width="130" height="130" as="geometry" />
        </mxCell>
        <mxCell id="oLJBHlY_lsccmAuZpIpo-45" value="" style="sketch=0;outlineConnect=0;fontColor=#232F3E;gradientColor=none;fillColor=#ED7100;strokeColor=none;dashed=0;verticalLabelPosition=bottom;verticalAlign=top;align=center;html=1;fontSize=12;fontStyle=0;aspect=fixed;pointerEvents=1;shape=mxgraph.aws4.ec2_m1_mac_instance;" parent="oLJBHlY_lsccmAuZpIpo-8" vertex="1">
          <mxGeometry x="27" y="65" width="30" height="30" as="geometry" />
        </mxCell>
        <mxCell id="oLJBHlY_lsccmAuZpIpo-46" value="" style="sketch=0;outlineConnect=0;fontColor=#232F3E;gradientColor=none;fillColor=#ED7100;strokeColor=none;dashed=0;verticalLabelPosition=bottom;verticalAlign=top;align=center;html=1;fontSize=12;fontStyle=0;aspect=fixed;pointerEvents=1;shape=mxgraph.aws4.ec2_m1_mac_instance;" parent="oLJBHlY_lsccmAuZpIpo-8" vertex="1">
          <mxGeometry x="84" y="65" width="30" height="30" as="geometry" />
        </mxCell>
        <mxCell id="oLJBHlY_lsccmAuZpIpo-12" value="" style="sketch=0;outlineConnect=0;fontColor=#232F3E;gradientColor=none;fillColor=#8C4FFF;strokeColor=none;dashed=0;verticalLabelPosition=bottom;verticalAlign=top;align=center;html=1;fontSize=12;fontStyle=0;aspect=fixed;pointerEvents=1;shape=mxgraph.aws4.application_load_balancer;" parent="oLJBHlY_lsccmAuZpIpo-1" vertex="1">
          <mxGeometry x="290" y="67.5" width="52.5" height="52.5" as="geometry" />
        </mxCell>
        <mxCell id="oLJBHlY_lsccmAuZpIpo-15" value="" style="image;sketch=0;aspect=fixed;html=1;points=[];align=center;fontSize=12;image=img/lib/mscae/Network_Security_Groups_Classic.svg;" parent="oLJBHlY_lsccmAuZpIpo-1" vertex="1">
          <mxGeometry x="330" y="100" width="14.8" height="20" as="geometry" />
        </mxCell>
        <mxCell id="oLJBHlY_lsccmAuZpIpo-19" value="" style="outlineConnect=0;dashed=0;verticalLabelPosition=bottom;verticalAlign=top;align=center;html=1;shape=mxgraph.aws3.vpc_nat_gateway;fillColor=#F58536;gradientColor=none;" parent="oLJBHlY_lsccmAuZpIpo-1" vertex="1">
          <mxGeometry x="160" y="240" width="40" height="40" as="geometry" />
        </mxCell>
        <mxCell id="oLJBHlY_lsccmAuZpIpo-34" value="" style="outlineConnect=0;dashed=0;verticalLabelPosition=bottom;verticalAlign=top;align=center;html=1;shape=mxgraph.aws3.route_table;fillColor=light-dark(#F58536,#33FFFF);gradientColor=none;" parent="oLJBHlY_lsccmAuZpIpo-1" vertex="1">
          <mxGeometry x="330" y="390" width="41.25" height="40" as="geometry" />
        </mxCell>
        <mxCell id="oLJBHlY_lsccmAuZpIpo-38" value="" style="endArrow=classic;html=1;rounded=0;entryX=0.121;entryY=-0.033;entryDx=0;entryDy=0;entryPerimeter=0;" parent="oLJBHlY_lsccmAuZpIpo-1" source="oLJBHlY_lsccmAuZpIpo-12" edge="1">
          <mxGeometry relative="1" as="geometry">
            <mxPoint x="70" y="119" as="sourcePoint" />
            <mxPoint x="136.8699999999999" y="438.02" as="targetPoint" />
            <Array as="points">
              <mxPoint x="137" y="94" />
            </Array>
          </mxGeometry>
        </mxCell>
        <mxCell id="oLJBHlY_lsccmAuZpIpo-40" value="Source" style="edgeLabel;resizable=0;html=1;;align=left;verticalAlign=bottom;" parent="oLJBHlY_lsccmAuZpIpo-38" connectable="0" vertex="1">
          <mxGeometry x="-1" relative="1" as="geometry">
            <mxPoint x="-40" as="offset" />
          </mxGeometry>
        </mxCell>
        <mxCell id="oLJBHlY_lsccmAuZpIpo-41" value="Target gp" style="edgeLabel;resizable=0;html=1;;align=right;verticalAlign=bottom;" parent="oLJBHlY_lsccmAuZpIpo-38" connectable="0" vertex="1">
          <mxGeometry x="1" relative="1" as="geometry">
            <mxPoint x="22" y="-10" as="offset" />
          </mxGeometry>
        </mxCell>
        <mxCell id="oLJBHlY_lsccmAuZpIpo-16" value="" style="sketch=0;outlineConnect=0;fontColor=#232F3E;gradientColor=none;fillColor=#ED7100;strokeColor=none;dashed=0;verticalLabelPosition=bottom;verticalAlign=top;align=center;html=1;fontSize=12;fontStyle=0;aspect=fixed;pointerEvents=1;shape=mxgraph.aws4.ec2_m1_mac_instance;" parent="oLJBHlY_lsccmAuZpIpo-1" vertex="1">
          <mxGeometry x="94" y="455" width="30" height="30" as="geometry" />
        </mxCell>
        <mxCell id="oLJBHlY_lsccmAuZpIpo-47" value="" style="outlineConnect=0;dashed=0;verticalLabelPosition=bottom;verticalAlign=top;align=center;html=1;shape=mxgraph.aws3.vpc_nat_gateway;fillColor=#F58536;gradientColor=none;" parent="oLJBHlY_lsccmAuZpIpo-1" vertex="1">
          <mxGeometry x="510" y="249" width="40" height="40" as="geometry" />
        </mxCell>
        <mxCell id="oLJBHlY_lsccmAuZpIpo-49" value="" style="outlineConnect=0;dashed=0;verticalLabelPosition=bottom;verticalAlign=top;align=center;html=1;shape=mxgraph.aws3.route_table;fillColor=light-dark(#F58536,#33FFFF);gradientColor=none;" parent="oLJBHlY_lsccmAuZpIpo-1" vertex="1">
          <mxGeometry x="248.75" y="390" width="41.25" height="40" as="geometry" />
        </mxCell>
        <mxCell id="jDFhQVW19YL8Ez2TPNkq-1" value="" style="endArrow=classic;html=1;rounded=0;entryX=0.529;entryY=0.684;entryDx=0;entryDy=0;entryPerimeter=0;" parent="oLJBHlY_lsccmAuZpIpo-1" source="oLJBHlY_lsccmAuZpIpo-12" target="oLJBHlY_lsccmAuZpIpo-3" edge="1">
          <mxGeometry relative="1" as="geometry">
            <mxPoint x="593.1300000000001" y="80" as="sourcePoint" />
            <mxPoint x="440" y="424.02" as="targetPoint" />
            <Array as="points">
              <mxPoint x="500" y="94" />
            </Array>
          </mxGeometry>
        </mxCell>
        <mxCell id="jDFhQVW19YL8Ez2TPNkq-3" value="Target gp" style="edgeLabel;resizable=0;html=1;;align=right;verticalAlign=bottom;" parent="jDFhQVW19YL8Ez2TPNkq-1" connectable="0" vertex="1">
          <mxGeometry x="1" relative="1" as="geometry">
            <mxPoint x="22" y="-10" as="offset" />
          </mxGeometry>
        </mxCell>
        <mxCell id="jDFhQVW19YL8Ez2TPNkq-4" value="" style="rounded=1;arcSize=10;dashed=1;fillColor=none;gradientColor=none;dashPattern=8 3 1 3;strokeWidth=2;strokeColor=light-dark(#000000,#FFB366);" parent="oLJBHlY_lsccmAuZpIpo-1" vertex="1">
          <mxGeometry x="80" y="440" width="470" height="70" as="geometry" />
        </mxCell>
        <mxCell id="oLJBHlY_lsccmAuZpIpo-4" value="" style="sketch=0;outlineConnect=0;fontColor=#232F3E;gradientColor=none;fillColor=#8C4FFF;strokeColor=none;dashed=0;verticalLabelPosition=bottom;verticalAlign=top;align=center;html=1;fontSize=12;fontStyle=0;aspect=fixed;pointerEvents=1;shape=mxgraph.aws4.internet_gateway;" parent="1" vertex="1">
          <mxGeometry x="404" y="150" width="60" height="60" as="geometry" />
        </mxCell>
        <mxCell id="oLJBHlY_lsccmAuZpIpo-27" style="edgeStyle=orthogonalEdgeStyle;rounded=0;orthogonalLoop=1;jettySize=auto;html=1;exitX=0;exitY=0.65;exitDx=0;exitDy=0;exitPerimeter=0;" parent="1" source="jDFhQVW19YL8Ez2TPNkq-5" target="oLJBHlY_lsccmAuZpIpo-12" edge="1">
          <mxGeometry relative="1" as="geometry" />
        </mxCell>
        <mxCell id="oLJBHlY_lsccmAuZpIpo-24" value="" style="points=[[0.35,0,0],[0.98,0.51,0],[1,0.71,0],[0.67,1,0],[0,0.795,0],[0,0.65,0]];verticalLabelPosition=bottom;sketch=0;html=1;verticalAlign=top;aspect=fixed;align=center;pointerEvents=1;shape=mxgraph.cisco19.user;fillColor=#005073;strokeColor=none;" parent="1" vertex="1">
          <mxGeometry x="700" y="40" width="50" height="50" as="geometry" />
        </mxCell>
        <mxCell id="oLJBHlY_lsccmAuZpIpo-25" value="LUXE APP" style="text;html=1;align=center;verticalAlign=middle;resizable=0;points=[];autosize=1;strokeColor=none;fillColor=none;" parent="1" vertex="1">
          <mxGeometry x="690" y="100" width="80" height="30" as="geometry" />
        </mxCell>
        <mxCell id="jDFhQVW19YL8Ez2TPNkq-6" value="" style="edgeStyle=orthogonalEdgeStyle;rounded=0;orthogonalLoop=1;jettySize=auto;html=1;exitX=0;exitY=0.65;exitDx=0;exitDy=0;exitPerimeter=0;" parent="1" source="oLJBHlY_lsccmAuZpIpo-24" target="jDFhQVW19YL8Ez2TPNkq-5" edge="1">
          <mxGeometry relative="1" as="geometry">
            <mxPoint x="700" y="73" as="sourcePoint" />
            <mxPoint x="436" y="258" as="targetPoint" />
          </mxGeometry>
        </mxCell>
        <mxCell id="jDFhQVW19YL8Ez2TPNkq-5" value="" style="verticalLabelPosition=bottom;sketch=0;html=1;fillColor=#A153A0;strokeColor=#ffffff;verticalAlign=top;align=center;points=[[0,0.5,0],[0.125,0.25,0],[0.25,0,0],[0.5,0,0],[0.75,0,0],[0.875,0.25,0],[1,0.5,0],[0.875,0.75,0],[0.75,1,0],[0.5,1,0],[0.125,0.75,0]];pointerEvents=1;shape=mxgraph.cisco_safe.compositeIcon;bgIcon=mxgraph.cisco_safe.design.blank_device;resIcon=mxgraph.cisco_safe.design.secure_dns_2;" parent="1" vertex="1">
          <mxGeometry x="540" y="45" width="50" height="45" as="geometry" />
        </mxCell>
      </root>
    </mxGraphModel>
  </diagram>
</mxfile>
